<svg width="11" height="7" viewBox="0 0 11 7" fill="none" xmlns="http://www.w3.org/2000/svg">
<path d="M10.7053 0.290792C10.5186 0.104542 10.2661 0 10.0028 0C9.73963 0 9.48711 0.104542 9.30043 0.290792L5.72361 3.83079L2.19661 0.290792C2.00993 0.104542 1.75741 0 1.49419 0C1.23098 0 0.978457 0.104542 0.791783 0.290792C0.698398 0.383755 0.624277 0.494356 0.573695 0.616216C0.523112 0.738075 0.49707 0.868781 0.49707 1.00079C0.49707 1.1328 0.523112 1.26351 0.573695 1.38537C0.624277 1.50723 0.698398 1.61783 0.791783 1.71079L5.01622 5.95079C5.10884 6.04452 5.21904 6.11891 5.34045 6.16968C5.46186 6.22045 5.59208 6.24659 5.72361 6.24659C5.85514 6.24659 5.98537 6.22045 6.10678 6.16968C6.22819 6.11891 6.33838 6.04452 6.43101 5.95079L10.7053 1.71079C10.7986 1.61783 10.8728 1.50723 10.9233 1.38537C10.9739 1.26351 11 1.1328 11 1.00079C11 0.868781 10.9739 0.738075 10.9233 0.616216C10.8728 0.494356 10.7986 0.383755 10.7053 0.290792Z" fill="black"/>
</svg>
