<svg width="36" height="34" viewBox="0 0 36 34" fill="none" xmlns="http://www.w3.org/2000/svg">
<path d="M13.8073 34C14.4732 34 15.1117 33.7319 15.5825 33.2546C16.0533 32.7774 16.3178 32.13 16.3178 31.4551C16.3178 30.7801 16.0533 30.1328 15.5825 29.6556C15.1117 29.1783 14.4732 28.9102 13.8073 28.9102C13.1415 28.9102 12.503 29.1783 12.0321 29.6556C11.5613 30.1328 11.2968 30.7801 11.2968 31.4551C11.2968 32.13 11.5613 32.7774 12.0321 33.2546C12.503 33.7319 13.1415 34 13.8073 34ZM5.02057 34C5.6864 34 6.32495 33.7319 6.79577 33.2546C7.26658 32.7774 7.53108 32.13 7.53108 31.4551C7.53108 30.7801 7.26658 30.1328 6.79577 29.6556C6.32495 29.1783 5.6864 28.9102 5.02057 28.9102C4.35474 28.9102 3.71619 29.1783 3.24538 29.6556C2.77457 30.1328 2.51007 30.7801 2.51007 31.4551C2.51007 32.13 2.77457 32.7774 3.24538 33.2546C3.71619 33.7319 4.35474 34 5.02057 34ZM21.3866 16.0877C21.6999 16.0775 21.9971 15.9441 22.2151 15.7157C22.4332 15.4874 22.5552 15.1821 22.5552 14.8642C22.5552 14.5464 22.4332 14.2411 22.2151 14.0127C21.9971 13.7844 21.6999 13.651 21.3866 13.6408H19.9418C18.8095 13.6408 17.8304 14.4373 17.5844 15.5571L16.0116 22.7363C15.7655 23.856 14.7864 24.6526 13.6542 24.6526H4.22474L2.41467 17.3105H14.145C14.4554 17.2962 14.7484 17.1611 14.9631 16.9333C15.1777 16.7056 15.2975 16.4027 15.2975 16.0877C15.2975 15.7727 15.1777 15.4698 14.9631 15.2421C14.7484 15.0143 14.4554 14.8792 14.145 14.8649H2.41467C2.04771 14.8648 1.68557 14.9495 1.35575 15.1125C1.02594 15.2756 0.73715 15.5128 0.511326 15.806C0.285503 16.0992 0.128595 16.4407 0.0525322 16.8046C-0.023531 17.1685 -0.0167465 17.5452 0.0723686 17.906L1.88244 25.2455C2.01293 25.7751 2.31436 26.2453 2.73878 26.5812C3.16321 26.9172 3.68626 27.0996 4.22474 27.0995H13.6542C14.7528 27.0996 15.8186 26.72 16.6756 26.0231C17.5325 25.3263 18.1294 24.354 18.3677 23.2669L19.9418 16.0877H21.3866Z" fill="black"/>
<ellipse cx="26.3596" cy="10.994" rx="9.64034" ry="9.77243" fill="#0156FF"/>
<path d="M23.8931 12.63C24.1198 12.45 24.2231 12.3667 24.2031 12.38C24.8565 11.84 25.3698 11.3967 25.7431 11.05C26.1231 10.7033 26.4431 10.34 26.7031 9.96C26.9631 9.58 27.0931 9.21 27.0931 8.85C27.0931 8.57667 27.0298 8.36333 26.9031 8.21C26.7765 8.05667 26.5865 7.98 26.3331 7.98C26.0798 7.98 25.8798 8.07667 25.7331 8.27C25.5931 8.45667 25.5231 8.72333 25.5231 9.07H23.8731C23.8865 8.50333 24.0065 8.03 24.2331 7.65C24.4665 7.27 24.7698 6.99 25.1431 6.81C25.5231 6.63 25.9431 6.54 26.4031 6.54C27.1965 6.54 27.7931 6.74333 28.1931 7.15C28.5998 7.55667 28.8031 8.08667 28.8031 8.74C28.8031 9.45333 28.5598 10.1167 28.0731 10.73C27.5865 11.3367 26.9665 11.93 26.2131 12.51H28.9131V13.9H23.8931V12.63Z" fill="white"/>
</svg>
