<svg width="506" height="48" viewBox="0 0 506 48" fill="none" xmlns="http://www.w3.org/2000/svg">
<rect width="506" height="48" rx="24" fill="white"/>
<path d="M21.3143 17C22.9889 17 24.595 17.6653 25.7792 18.8494C26.9633 20.0336 27.6286 21.6396 27.6286 23.3143C27.6286 24.8783 27.0554 26.316 26.1131 27.4234L26.3754 27.6857H27.1429L32 32.5429L30.5429 34L25.6857 29.1429V28.3754L25.4234 28.1131C24.316 29.0554 22.8783 29.6286 21.3143 29.6286C19.6396 29.6286 18.0336 28.9633 16.8494 27.7792C15.6653 26.595 15 24.9889 15 23.3143C15 21.6396 15.6653 20.0336 16.8494 18.8494C18.0336 17.6653 19.6396 17 21.3143 17ZM21.3143 18.9429C18.8857 18.9429 16.9429 20.8857 16.9429 23.3143C16.9429 25.7429 18.8857 27.6857 21.3143 27.6857C23.7429 27.6857 25.6857 25.7429 25.6857 23.3143C25.6857 20.8857 23.7429 18.9429 21.3143 18.9429Z" fill="#0156FF"/>
<path d="M491 18.41L489.59 17L484 22.59L478.41 17L477 18.41L482.59 24L477 29.59L478.41 31L484 25.41L489.59 31L491 29.59L485.41 24L491 18.41Z" fill="#4D4D4D" fill-opacity="0.5"/>
</svg>
